<svg xmlns="http://www.w3.org/2000/svg" width="18" height="13" viewBox="0 0 18 13">
  <g id="Eng" transform="translate(-11300 -145)">
    <rect id="Rectangle_2670" data-name="Rectangle 2670" width="18" height="13" transform="translate(11300 145)" fill="#fff"/>
    <path id="Union_2" data-name="Union 2" d="M0,13V12H18v1Zm0-2V10H18v1ZM0,9V8H18V9ZM0,7V6H18V7ZM0,5V4H18V5ZM0,3V2H18V3ZM0,1V0H18V1Z" transform="translate(11300 145)" fill="#cd223e"/>
    <rect id="Rectangle_190" data-name="Rectangle 190" width="8" height="8" transform="translate(11300 145)" fill="#05377b"/>
    <path id="Union_4" data-name="Union 4" d="M5.012,6.618l-.376.272.144-.44L4.4,6.178h.464l.144-.44.144.44h.464l-.376.272.144.44Zm-2.2,0-.376.272.144-.44L2.2,6.178h.464l.144-.44.144.44h.464l-.376.272.144.44Zm-2.2,0L.232,6.89l.144-.44L0,6.178H.464l.144-.44.143.44h.464L.839,6.45l.143.44Zm5.505-1.45-.375.272L5.881,5l-.375-.273H5.97l.143-.44.144.44H6.72L6.344,5l.144.44Zm-2.2,0-.376.272L3.679,5,3.3,4.727h.464l.144-.44.144.44h.464L4.142,5l.144.44Zm-2.2,0-.376.272L1.477,5,1.1,4.727h.464l.144-.44.144.44h.464L1.94,5l.144.44Zm3.3-1.429-.376.272.144-.44L4.4,3.3h.464l.144-.44.144.44h.464l-.376.272.144.44Zm-2.2,0-.376.272.144-.44L2.2,3.3h.464l.144-.44.144.44h.464l-.376.272.144.44Zm-2.2,0L.232,4.01l.144-.44L0,3.3H.464l.144-.44L.75,3.3h.464L.839,3.57l.143.44ZM6.113,2.31l-.375.272.143-.44L5.506,1.87H5.97l.143-.441.144.441H6.72l-.376.272.144.44Zm-2.2,0-.376.272.144-.44L3.3,1.87h.464l.144-.441.144.441h.464l-.376.272.144.44Zm-2.2,0-.376.272.144-.44L1.1,1.87h.464l.144-.441.144.441h.464l-.376.272.144.44ZM5.012.88l-.376.272L4.78.712,4.4.44h.464L5.012,0l.144.44h.464L5.243.712l.144.44Zm-2.2,0-.376.272.144-.44L2.2.44h.464L2.809,0l.144.44h.464L3.041.712l.144.44Zm-2.2,0-.376.272L.376.712,0,.44H.464L.607,0,.75.44h.464L.839.712l.143.44Z" transform="translate(11300.58 145.49)" fill="#fff"/>
  </g>
</svg>